# Blender v2.74 (sub 0) OBJ File: 'SilentChaosPylonTriangulated.blend'
# www.blender.org
mtllib ChaosPylonPlates.mtl
o Cube.003
v 0.282500 0.022500 -0.037500
v 0.282500 -0.022500 -0.037500
v 0.282500 0.037500 -0.022500
v 0.282500 0.037500 0.022500
v 0.282500 0.022500 0.037500
v 0.282500 -0.022500 0.037500
v 0.282500 -0.037500 0.022500
v 0.282500 -0.037500 -0.022500
v 0.282500 0.022500 -0.022500
v 0.282500 -0.022500 -0.022500
v 0.282500 0.022500 0.022500
v 0.282500 -0.022500 0.022500
v 0.267500 -0.022500 0.037500
v 0.267500 0.022500 0.037500
v 0.267500 0.037500 0.022500
v 0.267500 0.037500 -0.022500
v 0.267500 0.022500 -0.037500
v 0.267500 -0.022500 -0.037500
v 0.267500 -0.037500 -0.022500
v 0.267500 -0.037500 0.022500
v 0.267500 0.022500 0.022500
v 0.267500 -0.022500 0.022500
v 0.267500 0.022500 -0.022500
v 0.267500 -0.022500 -0.022500
v -0.282500 0.022500 0.037500
v -0.282500 -0.022500 0.037500
v -0.282500 0.037500 0.022500
v -0.282500 0.037500 -0.022500
v -0.282500 0.022500 -0.037500
v -0.282500 -0.022500 -0.037500
v -0.282500 -0.037500 -0.022500
v -0.282500 -0.037500 0.022500
v -0.282500 0.022500 0.022500
v -0.282500 -0.022500 0.022500
v -0.282500 0.022500 -0.022500
v -0.282500 -0.022500 -0.022500
v -0.267500 -0.022500 -0.037500
v -0.267500 0.022500 -0.037500
v -0.267500 0.037500 -0.022500
v -0.267500 0.037500 0.022500
v -0.267500 0.022500 0.037500
v -0.267500 -0.022500 0.037500
v -0.267500 -0.037500 0.022500
v -0.267500 -0.037500 -0.022500
v -0.267500 0.022500 -0.022500
v -0.267500 -0.022500 -0.022500
v -0.267500 0.022500 0.022500
v -0.267500 -0.022500 0.022500
v 0.037500 0.022500 0.282500
v 0.037500 -0.022500 0.282500
v 0.022500 0.037500 0.282500
v -0.022500 0.037500 0.282500
v -0.037500 0.022500 0.282500
v -0.037500 -0.022500 0.282500
v -0.022500 -0.037500 0.282500
v 0.022500 -0.037500 0.282500
v 0.022500 0.022500 0.282500
v 0.022500 -0.022500 0.282500
v -0.022500 0.022500 0.282500
v -0.022500 -0.022500 0.282500
v -0.037500 -0.022500 0.267500
v -0.037500 0.022500 0.267500
v -0.022500 0.037500 0.267500
v 0.022500 0.037500 0.267500
v 0.037500 0.022500 0.267500
v 0.037500 -0.022500 0.267500
v 0.022500 -0.037500 0.267500
v -0.022500 -0.037500 0.267500
v -0.022500 0.022500 0.267500
v -0.022500 -0.022500 0.267500
v 0.022500 0.022500 0.267500
v 0.022500 -0.022500 0.267500
v -0.037500 0.022500 -0.282500
v -0.037500 -0.022500 -0.282500
v -0.022500 0.037500 -0.282500
v 0.022500 0.037500 -0.282500
v 0.037500 0.022500 -0.282500
v 0.037500 -0.022500 -0.282500
v 0.022500 -0.037500 -0.282500
v -0.022500 -0.037500 -0.282500
v -0.022500 0.022500 -0.282500
v -0.022500 -0.022500 -0.282500
v 0.022500 0.022500 -0.282500
v 0.022500 -0.022500 -0.282500
v 0.037500 -0.022500 -0.267500
v 0.037500 0.022500 -0.267500
v 0.022500 0.037500 -0.267500
v -0.022500 0.037500 -0.267500
v -0.037500 0.022500 -0.267500
v -0.037500 -0.022500 -0.267500
v -0.022500 -0.037500 -0.267500
v 0.022500 -0.037500 -0.267500
v 0.022500 0.022500 -0.267500
v 0.022500 -0.022500 -0.267500
v -0.022500 0.022500 -0.267500
v -0.022500 -0.022500 -0.267500
vt 0.399189 0.764010
vt 0.480335 0.764010
vt 0.480335 0.845157
vt 0.804920 0.764010
vt 0.723774 0.845157
vt 0.723774 0.764010
vt 0.804920 0.520572
vt 0.723774 0.520572
vt 0.723774 0.439426
vt 0.480335 0.520572
vt 0.399189 0.520572
vt 0.480335 0.439426
vt 0.805584 0.345549
vt 0.724194 0.426939
vt 0.724194 0.345549
vt 0.805584 0.101379
vt 0.724194 0.101379
vt 0.724194 0.019989
vt 0.480025 0.019989
vt 0.480025 0.101379
vt 0.398635 0.101379
vt 0.398635 0.345548
vt 0.480025 0.345548
vt 0.480025 0.426939
vt 0.901061 0.744928
vt 0.901061 0.905915
vt 0.847399 0.905915
vt 0.847399 0.981805
vt 0.901061 0.034299
vt 0.901061 0.195285
vt 0.847399 0.195285
vt 0.847399 0.271175
vt 0.901061 0.271175
vt 0.901061 0.432162
vt 0.847399 0.432162
vt 0.901061 0.508052
vt 0.847399 0.669038
vt 0.847399 0.508052
vt 0.901061 0.669038
vt 0.847399 0.744928
vt 0.901061 0.981805
vt 0.847399 0.034299
vn 1.000000 0.000000 0.000000
vn -1.000000 0.000000 0.000000
vn -0.000000 0.000000 1.000000
vn 0.000000 0.707100 0.707100
vn 0.000000 1.000000 0.000000
vn 0.000000 0.707100 -0.707100
vn 0.000000 0.000000 -1.000000
vn 0.000000 -0.707100 -0.707100
vn 0.000000 -1.000000 0.000000
vn 0.000000 -0.707100 0.707100
vn -0.707100 0.707100 0.000000
vn 0.707100 0.707100 0.000000
vn 0.707100 -0.707100 0.000000
vn -0.707100 -0.707100 0.000000
usemtl skin.001
f 5/1/1 11/2/1 4/3/1
f 1/4/1 3/5/1 9/6/1
f 2/7/1 10/8/1 8/9/1
f 12/10/1 6/11/1 7/12/1
f 14/13/2 15/14/2 21/15/2
f 13/16/2 22/17/2 20/18/2
f 19/19/2 24/20/2 18/21/2
f 17/22/2 23/23/2 16/24/2
f 15/14/2 16/24/2 23/23/2
f 14/13/2 21/15/2 22/17/2
f 22/17/2 24/20/2 19/19/2
f 24/20/2 23/23/2 17/22/2
f 24/20/2 22/17/2 21/15/2
f 12/10/1 10/8/1 9/6/1
f 3/5/1 4/3/1 11/2/1
f 9/6/1 10/8/1 2/7/1
f 10/8/1 12/10/1 7/12/1
f 5/1/1 6/11/1 12/10/1
f 6/25/3 5/26/3 14/27/3
f 15/28/4 14/27/4 5/26/4
f 4/29/5 3/30/5 16/31/5
f 17/32/6 16/31/6 3/30/6
f 17/32/7 1/33/7 2/34/7
f 18/35/8 2/34/8 8/36/8
f 20/37/9 19/38/9 8/36/9
f 20/37/10 7/39/10 6/25/10
f 21/15/2 15/14/2 23/23/2
f 13/16/2 14/13/2 22/17/2
f 20/18/2 22/17/2 19/19/2
f 18/21/2 24/20/2 17/22/2
f 23/23/2 24/20/2 21/15/2
f 11/2/1 12/10/1 9/6/1
f 9/6/1 3/5/1 11/2/1
f 1/4/1 9/6/1 2/7/1
f 8/9/1 10/8/1 7/12/1
f 11/2/1 5/1/1 12/10/1
f 13/40/3 6/25/3 14/27/3
f 4/41/4 15/28/4 5/26/4
f 15/42/5 4/29/5 16/31/5
f 1/33/6 17/32/6 3/30/6
f 18/35/7 17/32/7 2/34/7
f 19/38/8 18/35/8 8/36/8
f 7/39/9 20/37/9 8/36/9
f 13/40/10 20/37/10 6/25/10
f 29/1/2 35/2/2 28/3/2
f 25/4/2 27/5/2 33/6/2
f 26/7/2 34/8/2 32/9/2
f 36/10/2 30/11/2 31/12/2
f 38/13/1 39/14/1 45/15/1
f 37/16/1 46/17/1 44/18/1
f 43/19/1 48/20/1 42/21/1
f 41/22/1 47/23/1 40/24/1
f 39/14/1 40/24/1 47/23/1
f 38/13/1 45/15/1 46/17/1
f 46/17/1 48/20/1 43/19/1
f 48/20/1 47/23/1 41/22/1
f 48/20/1 46/17/1 45/15/1
f 36/10/2 34/8/2 33/6/2
f 27/5/2 28/3/2 35/2/2
f 33/6/2 34/8/2 26/7/2
f 34/8/2 36/10/2 31/12/2
f 29/1/2 30/11/2 36/10/2
f 30/25/7 29/26/7 38/27/7
f 39/28/6 38/27/6 29/26/6
f 28/29/5 27/30/5 40/31/5
f 41/32/4 40/31/4 27/30/4
f 41/32/3 25/33/3 26/34/3
f 42/35/10 26/34/10 32/36/10
f 44/37/9 43/38/9 32/36/9
f 44/37/8 31/39/8 30/25/8
f 45/15/1 39/14/1 47/23/1
f 37/16/1 38/13/1 46/17/1
f 44/18/1 46/17/1 43/19/1
f 42/21/1 48/20/1 41/22/1
f 47/23/1 48/20/1 45/15/1
f 35/2/2 36/10/2 33/6/2
f 33/6/2 27/5/2 35/2/2
f 25/4/2 33/6/2 26/7/2
f 32/9/2 34/8/2 31/12/2
f 35/2/2 29/1/2 36/10/2
f 37/40/7 30/25/7 38/27/7
f 28/41/6 39/28/6 29/26/6
f 39/42/5 28/29/5 40/31/5
f 25/33/4 41/32/4 27/30/4
f 42/35/3 41/32/3 26/34/3
f 43/38/10 42/35/10 32/36/10
f 31/39/9 44/37/9 32/36/9
f 37/40/8 44/37/8 30/25/8
f 53/1/3 59/2/3 52/3/3
f 49/4/3 51/5/3 57/6/3
f 50/7/3 58/8/3 56/9/3
f 60/10/3 54/11/3 55/12/3
f 62/13/7 63/14/7 69/15/7
f 61/16/7 70/17/7 68/18/7
f 67/19/7 72/20/7 66/21/7
f 65/22/7 71/23/7 64/24/7
f 63/14/7 64/24/7 71/23/7
f 62/13/7 69/15/7 70/17/7
f 70/17/7 72/20/7 67/19/7
f 72/20/7 71/23/7 65/22/7
f 72/20/7 70/17/7 69/15/7
f 60/10/3 58/8/3 57/6/3
f 51/5/3 52/3/3 59/2/3
f 57/6/3 58/8/3 50/7/3
f 58/8/3 60/10/3 55/12/3
f 53/1/3 54/11/3 60/10/3
f 54/25/2 53/26/2 62/27/2
f 63/28/11 62/27/11 53/26/11
f 52/29/5 51/30/5 64/31/5
f 65/32/12 64/31/12 51/30/12
f 65/32/1 49/33/1 50/34/1
f 66/35/13 50/34/13 56/36/13
f 68/37/9 67/38/9 56/36/9
f 68/37/14 55/39/14 54/25/14
f 69/15/7 63/14/7 71/23/7
f 61/16/7 62/13/7 70/17/7
f 68/18/7 70/17/7 67/19/7
f 66/21/7 72/20/7 65/22/7
f 71/23/7 72/20/7 69/15/7
f 59/2/3 60/10/3 57/6/3
f 57/6/3 51/5/3 59/2/3
f 49/4/3 57/6/3 50/7/3
f 56/9/3 58/8/3 55/12/3
f 59/2/3 53/1/3 60/10/3
f 61/40/2 54/25/2 62/27/2
f 52/41/11 63/28/11 53/26/11
f 63/42/5 52/29/5 64/31/5
f 49/33/12 65/32/12 51/30/12
f 66/35/1 65/32/1 50/34/1
f 67/38/13 66/35/13 56/36/13
f 55/39/9 68/37/9 56/36/9
f 61/40/14 68/37/14 54/25/14
f 77/1/7 83/2/7 76/3/7
f 73/4/7 75/5/7 81/6/7
f 74/7/7 82/8/7 80/9/7
f 84/10/7 78/11/7 79/12/7
f 86/13/3 87/14/3 93/15/3
f 85/16/3 94/17/3 92/18/3
f 91/19/3 96/20/3 90/21/3
f 89/22/3 95/23/3 88/24/3
f 87/14/3 88/24/3 95/23/3
f 86/13/3 93/15/3 94/17/3
f 94/17/3 96/20/3 91/19/3
f 96/20/3 95/23/3 89/22/3
f 96/20/3 94/17/3 93/15/3
f 84/10/7 82/8/7 81/6/7
f 75/5/7 76/3/7 83/2/7
f 81/6/7 82/8/7 74/7/7
f 82/8/7 84/10/7 79/12/7
f 77/1/7 78/11/7 84/10/7
f 78/25/1 77/26/1 86/27/1
f 87/28/12 86/27/12 77/26/12
f 76/29/5 75/30/5 88/31/5
f 89/32/11 88/31/11 75/30/11
f 89/32/2 73/33/2 74/34/2
f 90/35/14 74/34/14 80/36/14
f 92/37/9 91/38/9 80/36/9
f 92/37/13 79/39/13 78/25/13
f 93/15/3 87/14/3 95/23/3
f 85/16/3 86/13/3 94/17/3
f 92/18/3 94/17/3 91/19/3
f 90/21/3 96/20/3 89/22/3
f 95/23/3 96/20/3 93/15/3
f 83/2/7 84/10/7 81/6/7
f 81/6/7 75/5/7 83/2/7
f 73/4/7 81/6/7 74/7/7
f 80/9/7 82/8/7 79/12/7
f 83/2/7 77/1/7 84/10/7
f 85/40/1 78/25/1 86/27/1
f 76/41/12 87/28/12 77/26/12
f 87/42/5 76/29/5 88/31/5
f 73/33/11 89/32/11 75/30/11
f 90/35/2 89/32/2 74/34/2
f 91/38/14 90/35/14 80/36/14
f 79/39/9 92/37/9 80/36/9
f 85/40/13 92/37/13 78/25/13
