# Blender v2.74 (sub 0) OBJ File: 'SilentChaosAltarTriangulated.blend'
# www.blender.org
mtllib SilentChaosAltarDiamond.mtl
o Cube.001_Cube.000
v 0.000000 0.250000 0.000000
v -0.037500 0.400000 0.037500
v 0.000000 0.550000 0.000000
v -0.037500 0.400000 -0.037500
v 0.037500 0.400000 0.037500
v 0.037500 0.400000 -0.037500
v 0.053025 0.400000 0.000000
v 0.000000 0.400000 0.053025
v -0.053025 0.400000 0.000000
v 0.000000 0.400000 -0.053025
vt 0.586845 0.726074
vt 0.586845 0.602766
vt 0.735690 0.664413
vt 0.884536 0.726059
vt 0.884536 0.602752
vt 0.674029 0.515567
vt 0.797337 0.515567
vt 0.586845 0.602737
vt 0.674029 0.813244
vt 0.797337 0.813244
vt 0.674044 0.813259
vt 0.586845 0.726045
vt 0.797352 0.515553
vt 0.797351 0.813258
vn 0.878300 0.310500 0.363600
vn 0.363600 -0.310500 -0.878300
vn 0.363600 0.310500 -0.878300
vn -0.878300 -0.310500 0.363600
vn 0.878300 -0.310500 0.363600
vn 0.363600 0.310500 0.878300
vn -0.878300 0.310500 -0.363600
vn 0.363600 -0.310500 0.878300
vn -0.363600 -0.310500 0.878300
vn 0.878300 0.310500 -0.363600
vn 0.878300 -0.310500 -0.363600
vn -0.363600 0.310500 -0.878300
vn -0.363600 -0.310500 -0.878300
vn -0.878300 0.310500 0.363600
vn -0.363600 0.310500 0.878300
vn -0.878300 -0.310500 -0.363600
usemtl skin
s off
f 5/1/1 7/2/1 3/3/1
f 6/4/2 1/3/2 10/5/2
f 6/6/3 10/7/3 3/3/3
f 2/8/4 9/6/4 1/3/4
f 5/9/5 1/3/5 7/10/5
f 3/3/6 8/11/6 5/1/6
f 4/5/7 9/4/7 3/3/7
f 5/9/8 8/12/8 1/3/8
f 2/8/9 1/3/9 8/12/9
f 6/6/10 3/3/10 7/2/10
f 1/3/11 6/4/11 7/10/11
f 3/3/12 10/7/12 4/5/12
f 1/3/13 4/13/13 10/5/13
f 9/4/14 2/14/14 3/3/14
f 8/11/15 3/3/15 2/14/15
f 9/6/16 4/13/16 1/3/16
